<svg width="55" height="55" viewBox="0 0 55 55" fill="none" xmlns="http://www.w3.org/2000/svg">
<rect width="55" height="55" fill="white"/>
<rect width="5" height="5" fill="#ccc"/>
<rect x="10" width="5" height="5" fill="#ccc"/>
<rect x="20" width="5" height="5" fill="#ccc"/>
<rect x="30" width="5" height="5" fill="#ccc"/>
<rect x="40" width="5" height="5" fill="#ccc"/>
<rect x="50" width="5" height="5" fill="#ccc"/>
<rect x="5" y="5" width="5" height="5" fill="#ccc"/>
<rect x="15" y="5" width="5" height="5" fill="#ccc"/>
<rect x="25" y="5" width="5" height="5" fill="#ccc"/>
<rect x="35" y="5" width="5" height="5" fill="#ccc"/>
<rect x="45" y="5" width="5" height="5" fill="#ccc"/>
<rect y="10" width="5" height="5" fill="#ccc"/>
<rect x="10" y="10" width="5" height="5" fill="#ccc"/>
<rect x="20" y="10" width="5" height="5" fill="#ccc"/>
<rect x="30" y="10" width="5" height="5" fill="#ccc"/>
<rect x="40" y="10" width="5" height="5" fill="#ccc"/>
<rect x="50" y="10" width="5" height="5" fill="#ccc"/>
<rect x="5" y="15" width="5" height="5" fill="#ccc"/>
<rect x="15" y="15" width="5" height="5" fill="#ccc"/>
<rect x="25" y="15" width="5" height="5" fill="#ccc"/>
<rect x="35" y="15" width="5" height="5" fill="#ccc"/>
<rect x="45" y="15" width="5" height="5" fill="#ccc"/>
<rect y="20" width="5" height="5" fill="#ccc"/>
<rect x="10" y="20" width="5" height="5" fill="#ccc"/>
<rect x="20" y="20" width="5" height="5" fill="#ccc"/>
<rect x="30" y="20" width="5" height="5" fill="#ccc"/>
<rect x="40" y="20" width="5" height="5" fill="#ccc"/>
<rect x="50" y="20" width="5" height="5" fill="#ccc"/>
<rect x="5" y="25" width="5" height="5" fill="#ccc"/>
<rect x="15" y="25" width="5" height="5" fill="#ccc"/>
<rect x="25" y="25" width="5" height="5" fill="#ccc"/>
<rect x="35" y="25" width="5" height="5" fill="#ccc"/>
<rect x="45" y="25" width="5" height="5" fill="#ccc"/>
<rect y="30" width="5" height="5" fill="#ccc"/>
<rect x="10" y="30" width="5" height="5" fill="#ccc"/>
<rect x="20" y="30" width="5" height="5" fill="#ccc"/>
<rect x="30" y="30" width="5" height="5" fill="#ccc"/>
<rect x="40" y="30" width="5" height="5" fill="#ccc"/>
<rect x="50" y="30" width="5" height="5" fill="#ccc"/>
<rect x="5" y="35" width="5" height="5" fill="#ccc"/>
<rect x="15" y="35" width="5" height="5" fill="#ccc"/>
<rect x="25" y="35" width="5" height="5" fill="#ccc"/>
<rect x="35" y="35" width="5" height="5" fill="#ccc"/>
<rect x="45" y="35" width="5" height="5" fill="#ccc"/>
<rect y="40" width="5" height="5" fill="#ccc"/>
<rect x="10" y="40" width="5" height="5" fill="#ccc"/>
<rect x="20" y="40" width="5" height="5" fill="#ccc"/>
<rect x="30" y="40" width="5" height="5" fill="#ccc"/>
<rect x="40" y="40" width="5" height="5" fill="#ccc"/>
<rect x="50" y="40" width="5" height="5" fill="#ccc"/>
<rect x="5" y="45" width="5" height="5" fill="#ccc"/>
<rect x="15" y="45" width="5" height="5" fill="#ccc"/>
<rect x="25" y="45" width="5" height="5" fill="#ccc"/>
<rect x="35" y="45" width="5" height="5" fill="#ccc"/>
<rect x="45" y="45" width="5" height="5" fill="#ccc"/>
<rect y="50" width="5" height="5" fill="#ccc"/>
<rect x="10" y="50" width="5" height="5" fill="#ccc"/>
<rect x="20" y="50" width="5" height="5" fill="#ccc"/>
<rect x="30" y="50" width="5" height="5" fill="#ccc"/>
<rect x="40" y="50" width="5" height="5" fill="#ccc"/>
<rect x="50" y="50" width="5" height="5" fill="#ccc"/>
</svg>
